<?xml version="1.0" standalone="no"?>
<!DOCTYPE svg PUBLIC "-//W3C//DTD SVG 20010904//EN"
 "http://www.w3.org/TR/2001/REC-SVG-20010904/DTD/svg10.dtd">
<svg version="1.0" xmlns="http://www.w3.org/2000/svg"
 width="512.000000pt" height="512.000000pt" viewBox="0 0 512.000000 512.000000"
 preserveAspectRatio="xMidYMid meet">

<g transform="translate(0.000000,512.000000) scale(0.100000,-0.100000)"
fill="#000000" stroke="none">
<path d="M1152 3809 c-287 -23 -548 -141 -761 -344 -287 -273 -431 -671 -381
-1052 22 -167 59 -285 138 -437 115 -224 324 -428 557 -544 347 -172 783 -165
1135 19 145 76 214 132 478 393 l242 239 243 -239 c268 -265 333 -318 487
-398 188 -97 358 -137 570 -137 269 0 478 63 700 209 389 257 609 734 550
1189 -39 300 -167 554 -381 758 -240 229 -529 345 -864 347 -269 1 -531 -85
-749 -245 -44 -33 -188 -166 -318 -295 l-238 -236 -237 236 c-131 129 -274
262 -319 295 -245 180 -548 267 -852 242z m279 -689 c119 -36 172 -78 420
-326 l234 -234 -234 -234 c-250 -251 -301 -289 -426 -329 -98 -30 -253 -29
-345 2 -158 55 -281 161 -348 303 -46 96 -62 161 -62 258 0 96 16 162 60 255
81 168 242 292 423 325 73 13 203 4 278 -20z m2612 -1 c154 -51 278 -160 345
-301 46 -96 62 -161 62 -258 0 -97 -16 -162 -62 -259 -123 -258 -423 -387
-700 -301 -118 36 -171 78 -419 326 l-234 234 225 226 c229 230 299 287 397
324 119 44 270 48 386 9z"/>
</g>
</svg>
