<?xml version="1.0" standalone="no"?>
<!DOCTYPE svg PUBLIC "-//W3C//DTD SVG 20010904//EN"
 "http://www.w3.org/TR/2001/REC-SVG-20010904/DTD/svg10.dtd">
<svg version="1.0" xmlns="http://www.w3.org/2000/svg"
 width="512.000000pt" height="512.000000pt" viewBox="0 0 512.000000 512.000000"
 preserveAspectRatio="xMidYMid meet">

<g transform="translate(0.000000,512.000000) scale(0.100000,-0.100000)"
fill="#000000" stroke="none">
<path d="M995 3654 c-414 -30 -714 -212 -874 -530 -104 -207 -145 -506 -105
-771 44 -302 165 -524 368 -677 277 -208 706 -269 1066 -150 94 31 301 130
400 192 182 112 423 302 613 481 l97 93 98 -93 c189 -179 430 -369 612 -481
99 -62 306 -161 400 -192 134 -44 226 -58 370 -58 451 0 788 185 959 527 104
208 145 507 105 772 -45 303 -165 524 -368 677 -277 208 -706 269 -1066 150
-94 -31 -301 -130 -400 -192 -182 -112 -423 -302 -612 -481 l-98 -93 -97 93
c-190 179 -431 369 -613 481 -99 62 -306 161 -400 192 -141 46 -318 70 -455
60z m236 -379 c261 -55 642 -297 972 -616 l102 -99 -104 -101 c-297 -287 -625
-506 -891 -595 -79 -26 -96 -28 -240 -28 -125 1 -170 5 -233 22 -236 64 -381
210 -443 447 -27 101 -27 409 0 510 82 311 307 468 678 474 48 0 119 -6 159
-14z m3052 -14 c235 -61 381 -208 443 -446 15 -56 19 -107 19 -255 0 -148 -4
-199 -19 -255 -62 -237 -210 -385 -443 -446 -113 -29 -288 -36 -387 -15 -266
55 -640 290 -979 616 l-102 98 60 62 c33 34 110 105 170 157 321 277 619 453
856 503 72 15 293 4 382 -19z"/>
</g>
</svg>
