<?xml version="1.0" encoding="utf-8"?>
<svg width="372px" height="512px" viewBox="0 0 372 512" version="1.1" xmlns:xlink="http://www.w3.org/1999/xlink" xmlns="http://www.w3.org/2000/svg">
  <defs>
    <linearGradient x1="1" y1="0" x2="0" y2="1" id="gradient_1">
      <stop offset="0" stop-color="#FFFFFF" />
      <stop offset="1" stop-color="#000000" />
    </linearGradient>
    <linearGradient x1="0" y1="0" x2="1" y2="1" id="gradient_2">
      <stop offset="0" stop-color="#FFFFFF" />
      <stop offset="1" stop-color="#0F0B0B" />
    </linearGradient>
    <filter filterUnits="userSpaceOnUse" color-interpolation-filters="sRGB" id="filter_1">
      <feFlood flood-opacity="0" result="BackgroundImageFix" />
      <feColorMatrix in="SourceAlpha" type="matrix" values="0 0 0 0 0 0 0 0 0 0 0 0 0 0 0 0 0 0 127 0" />
      <feOffset dx="0" dy="2" />
      <feGaussianBlur stdDeviation="2" />
      <feColorMatrix type="matrix" values="0 0 0 0 0.39215687 0 0 0 0 0.39215687 0 0 0 0 0.39215687 0 0 0 0.49803922 0" />
      <feBlend mode="normal" in2="BackgroundImageFix" result="effect0_dropShadow" />
      <feBlend mode="normal" in="SourceGraphic" in2="effect0_dropShadow" result="shape" />
    </filter>
  </defs>
  <g id="Group" transform="translate(0.5 -0.00010681152)">
    <path d="M6.9 1.60011C5.3 2.4001 3 4.50011 1.9 6.3001C0 9.4001 0 13.4001 0 256C0 498.9 0 502.5 2 505.7C5.8 512.1 4.3 512 68 512C131.1 512 130.2 512.1 134.2 506.2C135.9 503.6 136 493.1 136 256C136 18.9001 135.9 8.4001 134.2 5.8001C130.2 -0.0999293 131.1 0.000107288 67.8 0.000107288C18.4 0.000107288 9.6 0.300095 6.9 1.60011L6.9 1.60011Z" id="Shape" fill="url(#gradient_1)" fill-rule="evenodd" stroke="#000000" stroke-opacity="0.16862746" stroke-width="1" filter="url(#filter_1)" />
    <path d="M241.8 1.60011C240 2.50011 237.8 4.4001 236.8 5.9001C235.1 8.4001 235 19.4001 235 256C235 493.1 235.1 503.6 236.8 506.2C240.8 512.1 239.9 512 303 512C366.7 512 365.2 512.1 369 505.7C371 502.5 371 498.9 371 256C371 13.1001 371 9.50011 369 6.30009C365.2 -0.0999298 366.7 0.000106812 302.8 0.000106812C252.2 0.000106812 244.6 0.200089 241.8 1.60011L241.8 1.60011Z" id="Shape" fill="url(#gradient_2)" fill-rule="evenodd" stroke="#090909" stroke-opacity="0.16862746" stroke-width="1" />
  </g>
</svg>