<?xml version="1.0" standalone="no"?>
<!DOCTYPE svg PUBLIC "-//W3C//DTD SVG 20010904//EN"
 "http://www.w3.org/TR/2001/REC-SVG-20010904/DTD/svg10.dtd">
<svg version="1.0" xmlns="http://www.w3.org/2000/svg"
 width="512.000000pt" height="512.000000pt" viewBox="0 0 512.000000 512.000000"
 preserveAspectRatio="xMidYMid meet">

<g transform="translate(0.000000,512.000000) scale(0.100000,-0.100000)"
fill="#000000" stroke="none">
<path d="M642 5101 c-29 -10 -70 -32 -90 -48 -46 -37 -99 -113 -112 -163 -7
-25 -9 -799 -8 -2351 l3 -2314 23 -43 c35 -66 88 -119 150 -149 l57 -28 615 0
615 0 57 28 c62 30 115 83 150 149 l23 43 0 2335 0 2335 -23 43 c-35 66 -88
119 -150 149 l-57 28 -600 2 c-561 3 -603 1 -653 -16z"/>
<path d="M3202 5101 c-29 -10 -70 -32 -90 -48 -46 -37 -99 -113 -112 -163 -7
-25 -9 -799 -8 -2351 l3 -2314 23 -43 c35 -66 88 -119 150 -149 l57 -28 615 0
615 0 57 28 c62 30 115 83 150 149 l23 43 0 2335 0 2335 -23 43 c-35 66 -88
119 -150 149 l-57 28 -600 2 c-561 3 -603 1 -653 -16z"/>
</g>
</svg>
