<?xml version="1.0" standalone="no"?>
<!DOCTYPE svg PUBLIC "-//W3C//DTD SVG 20010904//EN"
 "http://www.w3.org/TR/2001/REC-SVG-20010904/DTD/svg10.dtd">
<svg version="1.0" xmlns="http://www.w3.org/2000/svg"
 width="900.000000pt" height="900.000000pt" viewBox="0 0 900.000000 900.000000"
 preserveAspectRatio="xMidYMid meet">
<metadata>
Created by potrace 1.10, written by Peter Selinger 2001-2011
</metadata>
<g transform="translate(0.000000,900.000000) scale(0.100000,-0.100000)"
fill="#000000" stroke="none">
<path d="M957 8971 c-10 -47 -9 -8943 1 -8959 7 -10 16 -7 43 11 19 13 41 26
49 30 20 10 42 24 115 72 71 47 95 62 115 71 8 4 31 19 50 34 19 15 42 30 50
34 23 10 48 26 130 81 41 28 97 64 124 80 27 17 59 37 72 45 31 20 161 103
182 115 27 16 100 63 192 124 96 63 119 77 140 87 8 5 41 26 75 48 68 46 94
62 115 72 8 4 31 19 50 34 19 15 42 30 50 34 20 9 44 24 115 71 33 22 68 44
77 50 9 5 49 30 88 55 39 25 79 50 88 55 27 16 130 83 207 134 79 52 104 67
125 77 8 4 43 27 77 51 35 24 65 43 67 43 3 0 33 19 68 42 69 47 95 63 118 74
8 4 43 27 77 51 35 24 65 43 67 43 3 0 33 19 68 42 35 24 70 47 79 53 9 5 49
30 89 55 40 25 80 50 89 55 9 6 43 28 76 50 33 22 68 44 77 50 9 5 38 23 65
39 26 16 93 59 148 95 55 36 108 70 117 76 9 5 38 23 65 39 26 16 93 59 148
95 55 36 108 70 117 76 50 30 213 132 278 176 41 27 82 52 90 57 16 8 55 33
190 121 46 31 92 61 102 66 9 6 49 30 89 55 39 25 79 50 88 55 9 6 44 29 79
53 35 23 66 42 69 42 4 0 14 6 22 14 9 8 32 22 51 33 19 10 82 50 140 88 58
38 113 74 122 80 9 5 38 23 65 39 26 16 93 59 148 95 55 36 105 68 110 71 6 3
29 17 52 32 24 16 45 28 47 28 3 0 34 20 70 45 37 25 68 45 70 45 3 0 33 19
68 43 91 60 101 66 118 74 8 3 31 19 50 33 19 15 51 36 70 46 19 11 74 45 121
77 47 31 88 57 92 57 3 0 41 24 84 53 43 29 100 66 127 83 27 16 60 37 75 46
14 10 32 21 40 24 7 4 62 39 121 79 59 40 114 75 121 79 8 3 26 14 41 24 15 9
58 37 97 61 45 27 71 50 71 61 0 11 -26 34 -71 61 -39 24 -82 52 -97 61 -15
10 -33 21 -41 24 -7 4 -62 39 -121 79 -59 40 -114 75 -121 79 -8 3 -26 14 -40
24 -15 9 -48 30 -75 46 -27 17 -84 54 -127 83 -43 29 -81 53 -84 53 -4 0 -45
26 -92 57 -47 32 -102 66 -121 77 -19 10 -51 30 -70 45 -40 30 -69 48 -90 58
-8 4 -43 26 -78 50 -35 24 -65 43 -68 43 -2 0 -33 20 -70 45 -36 25 -67 45
-70 45 -2 0 -23 12 -47 28 -23 15 -46 29 -52 32 -5 3 -55 35 -110 71 -55 36
-122 79 -148 95 -27 16 -56 34 -65 39 -9 6 -64 42 -122 80 -58 38 -121 78
-140 88 -19 11 -42 25 -51 33 -8 8 -18 14 -22 14 -3 0 -34 19 -69 42 -35 24
-70 47 -79 53 -9 5 -49 30 -88 55 -40 25 -80 50 -89 55 -10 6 -56 35 -102 66
-135 88 -174 113 -190 121 -8 5 -49 30 -90 57 -65 44 -228 146 -278 176 -9 6
-62 40 -117 76 -55 36 -122 79 -148 95 -27 16 -56 34 -65 39 -9 6 -62 40 -117
76 -55 36 -122 79 -148 95 -27 16 -56 34 -65 39 -9 6 -44 28 -77 50 -33 22
-67 44 -76 50 -9 5 -49 30 -89 55 -40 25 -80 50 -89 55 -9 6 -44 29 -79 53
-35 23 -65 42 -68 42 -2 0 -32 19 -67 43 -34 24 -69 47 -77 51 -23 11 -49 27
-118 74 -35 23 -65 42 -68 42 -2 0 -32 19 -67 43 -34 24 -69 47 -77 51 -21 10
-46 25 -125 77 -77 51 -180 118 -207 134 -9 5 -49 30 -88 55 -39 25 -79 50
-88 55 -9 6 -44 28 -77 50 -71 47 -95 62 -115 71 -8 4 -31 19 -50 34 -19 15
-42 30 -50 34 -21 10 -47 26 -115 72 -34 22 -67 43 -75 48 -21 10 -44 24 -140
87 -92 61 -165 108 -192 124 -21 12 -151 95 -182 115 -13 8 -45 28 -72 45 -27
16 -83 52 -124 80 -82 55 -107 71 -130 81 -8 4 -31 19 -50 33 -41 30 -69 48
-90 58 -8 4 -42 25 -75 48 -34 23 -67 44 -75 48 -8 4 -28 16 -45 27 -16 11
-40 24 -52 29 -12 6 -23 18 -25 28 -3 12 -6 6 -11 -16z"/>
</g>
</svg>
