<?xml version="1.0" standalone="no"?>
<!DOCTYPE svg PUBLIC "-//W3C//DTD SVG 20010904//EN"
 "http://www.w3.org/TR/2001/REC-SVG-20010904/DTD/svg10.dtd">
<svg version="1.0" xmlns="http://www.w3.org/2000/svg"
 width="512.000000pt" height="512.000000pt" viewBox="0 0 512.000000 512.000000"
 preserveAspectRatio="xMidYMid meet">

<g transform="translate(0.000000,512.000000) scale(0.100000,-0.100000)"
fill="#000000" stroke="none">
<path d="M200 4935 l-185 -185 665 -665 665 -665 -668 0 -667 0 0 -845 0 -845
567 0 568 0 707 -707 708 -708 0 945 0 945 605 -605 c333 -333 605 -607 605
-610 -1 -11 -191 -131 -295 -186 -61 -33 -162 -80 -225 -105 l-115 -46 -3
-297 -2 -298 32 7 c311 68 661 233 936 443 l73 56 282 -282 282 -282 185 185
185 185 -1516 1518 c-1190 1191 -2779 2794 -3158 3184 l-46 48 -185 -185z"/>
<path d="M3130 4793 l0 -298 78 -29 c171 -63 409 -199 566 -324 620 -494 893
-1282 705 -2037 -11 -44 -34 -122 -51 -174 l-30 -93 208 -209 c115 -115 212
-209 215 -209 12 0 107 204 143 305 96 274 137 531 137 875 1 508 -137 976
-413 1400 -329 507 -857 896 -1433 1056 -49 14 -98 27 -107 30 -17 5 -18 -14
-18 -293z"/>
<path d="M2260 4535 l-295 -295 298 -298 297 -297 0 593 c0 325 -1 592 -3 592
-1 0 -135 -133 -297 -295z"/>
<path d="M3130 3387 l0 -312 350 -350 350 -350 0 155 c0 85 -7 198 -15 251
-46 308 -219 603 -459 782 -73 55 -203 137 -218 137 -4 0 -8 -141 -8 -313z"/>
</g>
</svg>
