<?xml version="1.0" standalone="no"?>
<!DOCTYPE svg PUBLIC "-//W3C//DTD SVG 20010904//EN"
 "http://www.w3.org/TR/2001/REC-SVG-20010904/DTD/svg10.dtd">
<svg version="1.0" xmlns="http://www.w3.org/2000/svg"
 width="512.000000pt" height="512.000000pt" viewBox="0 0 512.000000 512.000000"
 preserveAspectRatio="xMidYMid meet">

<g transform="translate(0.000000,512.000000) scale(0.100000,-0.100000)"
fill="#000000" stroke="none">
<path d="M3130 4763 l0 -298 83 -29 c114 -40 285 -122 394 -189 769 -477 1115
-1387 859 -2261 -173 -592 -657 -1094 -1253 -1302 l-83 -29 0 -297 c0 -164 3
-298 6 -298 18 0 210 57 293 87 751 271 1340 889 1574 1654 83 268 110 458
110 759 0 301 -27 491 -110 759 -235 766 -822 1383 -1574 1654 -83 30 -275 87
-293 87 -3 0 -6 -134 -6 -297z"/>
<path d="M1845 4120 l-710 -710 -567 0 -568 0 0 -850 0 -850 567 0 568 0 712
-712 713 -713 0 2273 c0 1249 -1 2272 -3 2272 -1 0 -322 -319 -712 -710z"/>
<path d="M3130 2560 c0 -621 3 -1130 6 -1130 17 0 147 76 207 122 246 184 406
441 474 759 25 117 25 381 0 498 -68 318 -228 575 -474 759 -60 46 -190 122
-207 122 -3 0 -6 -508 -6 -1130z"/>
</g>
</svg>
